<svg width="55" height="54" viewBox="0 0 55 54" fill="none" xmlns="http://www.w3.org/2000/svg">
<path d="M27.9381 17.4252L27.9382 17.4252C29.8366 13.6491 30.0224 9.48677 29.8481 6.84571L29.8472 6.83183L29.8467 6.81793C29.8223 6.1784 29.631 5.41533 29.339 4.69017C29.0454 3.96079 28.685 3.35624 28.385 3.01255L28.3838 3.01118C28.0766 2.65791 27.6059 2.28362 27.0791 1.97483C26.5588 1.66987 26.0591 1.47277 25.6985 1.40463C24.8034 1.29844 22.7914 1.29882 21.375 1.52419L21.3621 1.52624L21.3492 1.52795L15.8632 2.25464L15.7318 2.27204L15.6005 2.25463L10.1178 1.52794L10.108 1.52664L10.0982 1.52514C8.61961 1.29928 6.66994 1.29805 5.70994 1.40453C5.37929 1.47276 4.89712 1.6677 4.38472 1.97208C3.8622 2.28246 3.3909 2.65769 3.08455 3.01137L3.08141 3.015L3.08141 3.01499C2.78084 3.35866 2.42008 3.9636 2.11764 4.69836C1.82008 5.4213 1.61206 6.18993 1.55938 6.84328C1.44065 9.50217 1.63046 13.6623 3.46916 17.4358L3.46938 17.4363L3.46941 17.4363L3.47121 17.4401L3.47636 17.4507L3.49238 17.4846C3.50551 17.5128 3.52343 17.5519 3.54545 17.6018C3.58949 17.7015 3.64995 17.8442 3.72125 18.0275C3.86382 18.3939 4.05004 18.9232 4.23503 19.5961C4.60485 20.9414 4.97114 22.8658 4.97114 25.2127C4.97114 26.0874 4.89692 27.1932 4.81662 28.3655L4.8077 28.4956C4.72883 29.6459 4.64443 30.877 4.60699 32.1004C4.56809 33.3713 4.581 34.6065 4.69852 35.7022C4.81715 36.8081 5.03538 37.6985 5.36139 38.326M27.9381 17.4252L5.36361 38.3303C5.36287 38.3289 5.36213 38.3274 5.36139 38.326M27.9381 17.4252L27.9343 17.4329L28.8316 17.8744C27.9343 17.4329 27.9342 17.4332 27.934 17.4335L27.9337 17.4342L27.933 17.4357L27.9312 17.4394L27.926 17.4501L27.91 17.484C27.8968 17.5122 27.8789 17.5513 27.8568 17.6012C27.8127 17.7009 27.7522 17.8436 27.6808 18.0268C27.538 18.3931 27.3515 18.9223 27.1663 19.5952C26.796 20.9403 26.4293 22.8648 26.4293 25.2127C26.4293 25.6715 26.435 26.1838 26.4413 26.7354C26.4582 28.2409 26.4785 30.0389 26.3936 31.8411C26.2766 34.3265 25.9637 36.5934 25.2828 37.963C25.2826 37.9626 25.2808 37.9643 25.2771 37.9677C25.2476 37.9952 25.0969 38.1353 24.6489 38.2763C24.1786 38.4243 23.5648 38.5132 22.9331 38.5199C22.2982 38.5267 21.7135 38.4499 21.2934 38.3133C20.9712 38.2085 20.8686 38.1127 20.8459 38.0912C20.4985 36.8623 20.2385 35.1446 20.0035 33.1952C19.8984 32.3229 19.7953 31.3751 19.6912 30.4176C19.568 29.285 19.4433 28.1387 19.312 27.0879C19.0648 25.1091 18.7675 23.2194 18.3324 21.8137C18.1166 21.1166 17.8438 20.4591 17.4733 19.9593C17.099 19.4545 16.5242 18.9881 15.7304 18.9963C14.9552 18.9879 14.3646 19.4257 13.9556 19.9065C13.5437 20.3906 13.2095 21.0356 12.9268 21.733C12.3579 23.1364 11.8919 25.0243 11.4829 27.0095C11.1677 28.5399 10.8779 30.1725 10.6001 31.7374C10.5158 32.2118 10.4327 32.68 10.3503 33.1373C9.9956 35.1061 9.65684 36.857 9.29693 38.1165C9.28869 38.1258 9.2081 38.2504 8.85438 38.3998C8.47862 38.5585 7.95894 38.6702 7.39556 38.7033C6.83319 38.7363 6.29463 38.6869 5.88713 38.5734C5.50527 38.4671 5.38553 38.3488 5.36461 38.3282C5.36137 38.325 5.3605 38.3241 5.36139 38.326M27.9381 17.4252L5.36139 38.326" fill="#0FE3AF" stroke="#0152A8" stroke-width="2"/>
<path d="M23.2736 6.66909L23.1411 14.6177" stroke="#0152A8" stroke-width="2" stroke-linecap="round" stroke-linejoin="round"/>
</svg>
