<svg width="54" height="54" viewBox="0 0 54 54" fill="none" xmlns="http://www.w3.org/2000/svg">
<path d="M32.6103 6.21644C28.0548 5.99491 25.545 10.1314 24.8596 12.2273L25.176 34.9258C25.0178 38.2739 26.3465 44.7882 32.9267 44.0606C39.5069 43.333 40.7829 37.6676 40.5983 34.9258C41.5078 34.7281 45.9764 32.5532 46.8068 26.0679C47.4711 20.8796 42.9446 17.9481 40.5983 17.1308V16.3399V13.6905C40.5983 10.4083 38.3047 6.49335 32.6103 6.21644Z" fill="#0FE3AF"/>
<path d="M24.8184 34.5001V15.6143" stroke="#0152A8" stroke-width="2" stroke-linecap="round" stroke-linejoin="round"/>
<path d="M16.9502 28.2051C18.5065 28.2051 20.0279 28.6666 21.322 29.5313C22.6161 30.3959 23.6247 31.6249 24.2203 33.0628C24.8159 34.5007 24.9717 36.0829 24.6681 37.6094C24.3644 39.1358 23.615 40.538 22.5145 41.6385C21.414 42.739 20.0118 43.4885 18.4854 43.7921C16.9589 44.0957 15.3767 43.9399 13.9388 43.3443C12.5009 42.7487 11.2719 41.7401 10.4072 40.446C9.54257 39.152 9.08105 37.6306 9.08105 36.0742V34.7561" stroke="#0152A8" stroke-width="2" stroke-linecap="round" stroke-linejoin="round"/>
<path d="M32.6875 28.2051C31.1311 28.2051 29.6097 28.6666 28.3156 29.5313C27.0216 30.3959 26.013 31.6249 25.4174 33.0628C24.8218 34.5007 24.6659 36.0829 24.9696 37.6094C25.2732 39.1358 26.0227 40.538 27.1232 41.6385C28.2237 42.739 29.6258 43.4885 31.1523 43.7921C32.6787 44.0957 34.261 43.9399 35.6989 43.3443C37.1367 42.7487 38.3657 41.7401 39.2304 40.446C40.0951 39.152 40.5566 37.6306 40.5566 36.0742V34.7561" stroke="#0152A8" stroke-width="2" stroke-linecap="round" stroke-linejoin="round"/>
<path d="M13.8019 35.2866H12.2281C9.99603 35.2926 7.83404 34.5077 6.12565 33.0713C4.41725 31.6349 3.27291 29.6397 2.89565 27.4398C2.51838 25.2399 2.93259 22.9774 4.06477 21.0538C5.19696 19.1303 6.97393 17.6699 9.08042 16.9319V14.04C9.08042 11.953 9.90948 9.95145 11.3852 8.47571C12.861 6.99996 14.8625 6.1709 16.9495 6.1709C19.0365 6.1709 21.0381 6.99996 22.5138 8.47571C23.9896 9.95145 24.8186 11.953 24.8186 14.04V36.0735" stroke="#0152A8" stroke-width="2" stroke-linecap="round" stroke-linejoin="round"/>
<path d="M35.8351 35.2866H37.4089C39.641 35.2926 41.803 34.5077 43.5114 33.0713C45.2197 31.6349 46.3641 29.6397 46.7413 27.4398C47.1186 25.2399 46.7044 22.9774 45.5722 21.0538C44.44 19.1303 42.6631 17.6699 40.5566 16.9319V14.04C40.5566 11.953 39.7275 9.95145 38.2518 8.47571C36.776 6.99996 34.7745 6.1709 32.6875 6.1709C30.6005 6.1709 28.5989 6.99996 27.1232 8.47571C25.6474 9.95145 24.8184 11.953 24.8184 14.04" stroke="#0152A8" stroke-width="2" stroke-linecap="round" stroke-linejoin="round"/>
<path d="M16.9498 16.4011V17.9749C16.9498 19.4359 16.3694 20.8369 15.3364 21.87C14.3034 22.903 12.9023 23.4833 11.4414 23.4833" stroke="#0152A8" stroke-width="2" stroke-linecap="round" stroke-linejoin="round"/>
<path d="M32.6885 16.4014V17.9752C32.6885 19.4361 33.2688 20.8372 34.3018 21.8702C35.3349 22.9032 36.7359 23.4836 38.1969 23.4836" stroke="#0152A8" stroke-width="2" stroke-linecap="round" stroke-linejoin="round"/>
</svg>
