<svg width="126" height="126" viewBox="0 0 126 126" fill="none" xmlns="http://www.w3.org/2000/svg">
<circle cx="63.0111" cy="62.6395" r="62.4994" fill="#E6ECF2"/>
<path d="M83.0368 53.4565C82.7576 53.7264 82.3845 53.8773 81.9962 53.8773C81.6079 53.8773 81.2348 53.7264 80.9557 53.4565L77.615 50.0975L72.3757 55.3367L78.6555 61.5983C78.9298 61.8752 79.0836 62.2491 79.0836 62.6388C79.0836 63.0285 78.9298 63.4025 78.6555 63.6794C78.3764 63.9493 78.0033 64.1002 77.615 64.1002C77.2267 64.1002 76.8536 63.9493 76.5744 63.6794L75.4243 62.511L60.09 77.8454C59.5421 78.3918 58.8009 78.7001 58.0271 78.7034H49.0091L45.0659 82.6648C44.7868 82.9347 44.4137 83.0856 44.0254 83.0856C43.6371 83.0856 43.264 82.9347 42.9848 82.6648C42.7106 82.3879 42.5568 82.0139 42.5568 81.6242C42.5568 81.2345 42.7106 80.8606 42.9848 80.5837L46.9462 76.6406V67.6225C46.9495 66.8488 47.2578 66.1075 47.8042 65.5597L49.8488 63.5151C49.9853 63.3813 50.1688 63.3063 50.3599 63.3063C50.5511 63.3063 50.7346 63.3813 50.8711 63.5151L56.1286 68.7908C56.4077 69.0607 56.7808 69.2116 57.1691 69.2116C57.5574 69.2116 57.9305 69.0607 58.2097 68.7908C58.4839 68.5139 58.6378 68.14 58.6378 67.7503C58.6378 67.3606 58.4839 66.9866 58.2097 66.7097L52.9339 61.4522C52.8001 61.3157 52.7252 61.1322 52.7252 60.9411C52.7252 60.75 52.8001 60.5664 52.9339 60.4299L56.4207 56.9432C56.5572 56.8094 56.7407 56.7345 56.9318 56.7345C57.123 56.7345 57.3065 56.8094 57.443 56.9432L62.7005 62.219C62.9796 62.4889 63.3527 62.6398 63.741 62.6398C64.1293 62.6398 64.5024 62.4889 64.7816 62.219C65.0558 61.9421 65.2096 61.5681 65.2096 61.1784C65.2096 60.7887 65.0558 60.4148 64.7816 60.1379L59.5058 54.8804C59.372 54.7439 59.2971 54.5604 59.2971 54.3692C59.2971 54.1781 59.372 53.9946 59.5058 53.8581L63.1386 50.2253L62.025 49.1117C61.7492 48.8399 61.5879 48.4727 61.5744 48.0857C61.5608 47.6987 61.6959 47.3211 61.952 47.0306C62.087 46.8897 62.2486 46.7768 62.4275 46.6987C62.6063 46.6205 62.7989 46.5785 62.9941 46.5751C63.1892 46.5717 63.3831 46.607 63.5646 46.6789C63.7461 46.7508 63.9115 46.8579 64.0513 46.9941L70.3129 53.2739L75.5521 48.0347L72.2479 44.7305C71.9721 44.4586 71.8109 44.0915 71.7973 43.7045C71.7837 43.3174 71.9188 42.9399 72.1749 42.6494C72.3099 42.5084 72.4715 42.3956 72.6504 42.3174C72.8293 42.2392 73.0218 42.1972 73.217 42.1938C73.4122 42.1904 73.6061 42.2257 73.7875 42.2976C73.969 42.3696 74.1344 42.4767 74.2743 42.6129L83.0368 51.3754C83.311 51.6523 83.4648 52.0262 83.4648 52.4159C83.4648 52.8056 83.311 53.1796 83.0368 53.4565Z" fill="#0152A8"/>
</svg>
