<svg width="126" height="126" viewBox="0 0 126 126" fill="none" xmlns="http://www.w3.org/2000/svg">
<circle cx="62.6853" cy="62.6395" r="62.4994" fill="#E6ECF2"/>
<path d="M44.307 55.7406L60.6189 50.9921H60.6388L79.2753 45.5482C79.75 45.4073 80.2512 45.3806 80.738 45.4704C81.2249 45.5602 81.6836 45.7638 82.0768 46.0647C82.4751 46.3575 82.7981 46.7408 83.0192 47.183C83.2403 47.6252 83.3531 48.1136 83.3484 48.6079V76.1455C83.3484 76.9852 83.0162 77.7908 82.4243 78.3864C81.8324 78.982 81.029 79.3192 80.1893 79.3244C79.8807 79.3252 79.5734 79.2851 79.2753 79.2052L62.6852 74.3573V76.6819C62.6852 77.5251 62.3503 78.3336 61.7541 78.9298C61.158 79.526 60.3494 79.8609 59.5063 79.8609H53.1484C52.3053 79.8609 51.4967 79.526 50.9005 78.9298C50.3044 78.3336 49.9695 77.5251 49.9695 76.6819V70.6618L44.307 69.0127C43.6477 68.8162 43.0694 68.4124 42.6579 67.8612C42.2463 67.3101 42.0233 66.6409 42.0221 65.953V58.8004C42.0233 58.1125 42.2463 57.4433 42.6579 56.8922C43.0694 56.341 43.6477 55.9372 44.307 55.7406ZM53.1484 76.6819H59.5063V73.4434L53.1484 71.5758V76.6819ZM45.201 65.953L52.0358 67.9398L59.5063 70.1254V54.628L45.201 58.8004V65.953Z" fill="#0152A8"/>
</svg>
