<svg width="86" height="86" viewBox="0 0 86 86" fill="none" xmlns="http://www.w3.org/2000/svg">
<circle cx="42.6855" cy="43.2461" r="42.5" fill="#E6ECF2"/>
<path d="M49.5605 43.2425C49.5605 47.0394 46.4825 50.1175 42.6856 50.1175C38.8886 50.1175 35.8106 47.0394 35.8106 43.2425C35.8106 39.4455 38.8886 36.3675 42.6856 36.3675C46.4825 36.3675 49.5605 39.4455 49.5605 43.2425ZM49.5605 43.2425C49.5605 47.0409 50.9355 50.1175 54.373 50.1175C57.8105 50.1175 59.1855 47.0409 59.1855 43.2425C59.1847 39.5662 57.9562 35.9956 55.6949 33.0971C53.4336 30.1986 50.2692 28.1383 46.7037 27.2431C43.1381 26.3478 39.3757 26.669 36.0135 28.1555C32.6512 29.6421 29.8817 32.2089 28.1444 35.4486C26.4071 38.6884 25.8014 42.4156 26.4236 46.0388C27.0457 49.662 28.8601 52.9736 31.5786 55.4482C34.2972 57.9229 37.7644 59.4187 41.4299 59.6985C45.0955 59.9782 48.7495 59.0258 51.8121 56.9924M49.5605 43.2425V36.3675" stroke="#0152A8" stroke-width="2" stroke-linecap="round" stroke-linejoin="round"/>
</svg>
