<svg width="126" height="126" viewBox="0 0 126 126" fill="none" xmlns="http://www.w3.org/2000/svg">
<circle cx="63.337" cy="62.6395" r="62.4994" fill="#E6ECF2"/>
<path d="M83.8913 47.0564C83.6365 46.477 83.2182 45.9844 82.6877 45.6392C82.1571 45.294 81.5373 45.111 80.9043 45.1128H45.7557C45.1229 45.1179 44.5049 45.3052 43.9757 45.6522C43.4465 45.9993 43.0285 46.4915 42.7717 47.0699C42.5149 47.6483 42.4301 48.2884 42.5275 48.9137C42.625 49.539 42.9005 50.123 43.3211 50.5958L56.7831 65.3877V81.3458C56.7821 81.9395 56.9436 82.5222 57.2502 83.0307C57.5567 83.5392 57.9966 83.9541 58.5221 84.2305C58.9953 84.4806 59.5214 84.6139 60.0566 84.6192C60.7048 84.6194 61.3385 84.4272 61.8774 84.0668L68.4243 79.6886C68.8727 79.3906 69.2401 78.9861 69.4936 78.5112C69.7471 78.0363 69.8788 77.5059 69.8769 76.9675V65.3877L83.3389 50.5958C83.7673 50.1247 84.048 49.5382 84.1462 48.909C84.2444 48.2798 84.1558 47.6357 83.8913 47.0564Z" fill="#0152A8"/>
</svg>
