<svg width="55" height="55" viewBox="0 0 55 55" fill="none" xmlns="http://www.w3.org/2000/svg">
<path d="M29.9268 12.8258L10.7522 32.0005C10.5955 32.1579 10.4715 32.3446 10.3871 32.55C10.3028 32.7554 10.2597 32.9755 10.2605 33.1975V44.4629H21.5259C21.7479 44.4637 21.968 44.4207 22.1734 44.3363C22.3788 44.2519 22.5656 44.1279 22.723 43.9712L41.8976 24.7966" fill="#0FE3AF"/>
<path d="M29.9268 12.8258L10.7522 32.0005C10.5955 32.1579 10.4715 32.3446 10.3871 32.55C10.3028 32.7554 10.2597 32.9755 10.2605 33.1975V44.4629H21.5259C21.7479 44.4637 21.968 44.4207 22.1734 44.3363C22.3788 44.2519 22.5656 44.1279 22.723 43.9712L41.8976 24.7966" stroke="#0152A8" stroke-width="2" stroke-linecap="round" stroke-linejoin="round"/>
<path d="M39.3325 5.13049L49.5932 15.3912" stroke="#0152A8" stroke-width="2" stroke-linecap="round" stroke-linejoin="round"/>
<path d="M27.3618 10.2606L44.463 27.3618" stroke="#0152A8" stroke-width="2" stroke-linecap="round" stroke-linejoin="round"/>
<path d="M21.804 20.949L27.3618 26.5068" stroke="#0152A8" stroke-width="2" stroke-linecap="round" stroke-linejoin="round"/>
<path d="M15.8186 26.9343L21.3765 32.4922" stroke="#0152A8" stroke-width="2" stroke-linecap="round" stroke-linejoin="round"/>
<path d="M35.9124 18.8112L44.4629 10.2606" stroke="#0152A8" stroke-width="2" stroke-linecap="round" stroke-linejoin="round"/>
<path d="M10.2607 44.463L5.13037 49.5934" stroke="#0152A8" stroke-width="2" stroke-linecap="round" stroke-linejoin="round"/>
</svg>
