<svg width="60" height="60" viewBox="0 0 60 60" fill="none" xmlns="http://www.w3.org/2000/svg">
<circle cx="29.6575" cy="29.6941" r="29.0442" stroke="#0FE3AF"/>
<path d="M33.2819 18.6264C35.0662 19.1053 36.6931 20.045 37.9994 21.3513C39.3057 22.6576 40.2454 24.2845 40.7242 26.0688M32.1906 22.6895C33.2637 22.9745 34.2424 23.5381 35.0275 24.3232C35.8126 25.1083 36.3762 26.087 36.6612 27.1601M24.4852 29.7768C25.5677 32.0121 27.3752 33.815 29.6133 34.8917C29.7784 34.9699 29.961 35.0037 30.1432 34.9899C30.3253 34.9761 30.5007 34.915 30.6521 34.8128L33.9394 32.617C34.0846 32.5185 34.2524 32.4583 34.4272 32.4423C34.6019 32.4262 34.7779 32.4546 34.9387 32.5249L41.0924 35.1679C41.3027 35.2554 41.4784 35.4096 41.5925 35.6068C41.7065 35.8041 41.7526 36.0333 41.7236 36.2592C41.5285 37.7815 40.7855 39.1806 39.6335 40.1947C38.4814 41.2087 36.9994 41.7683 35.4646 41.7687C30.7219 41.7687 26.1734 39.8846 22.8197 36.531C19.4661 33.1773 17.582 28.6288 17.582 23.886C17.5824 22.3513 18.1419 20.8692 19.156 19.7172C20.1701 18.5652 21.5691 17.8222 23.0915 17.6271C23.3174 17.5981 23.5466 17.6442 23.7438 17.7582C23.941 17.8722 24.0953 18.048 24.1828 18.2583L26.8258 24.4251C26.8945 24.5834 26.9232 24.7561 26.9095 24.9281C26.8957 25.1001 26.8399 25.266 26.7469 25.4113L24.551 28.7512C24.4532 28.9022 24.3959 29.0758 24.3843 29.2554C24.3728 29.435 24.4076 29.6145 24.4852 29.7768Z" stroke="#0152A8" stroke-linecap="round" stroke-linejoin="round"/>
</svg>
