<svg width="35" height="35" viewBox="0 0 35 35" fill="none" xmlns="http://www.w3.org/2000/svg">
<ellipse cx="17.6671" cy="17.312" rx="17.3361" ry="17.312" fill="#095FBA"/>
<path d="M15.3866 17.5399C15.9849 18.7736 16.9839 19.7687 18.2208 20.3629C18.3121 20.4061 18.413 20.4248 18.5137 20.4171C18.6143 20.4095 18.7113 20.3758 18.795 20.3194L20.6118 19.1074C20.692 19.0531 20.7848 19.0199 20.8814 19.011C20.978 19.0021 21.0752 19.0178 21.1641 19.0566L24.5652 20.5153C24.6814 20.5637 24.7785 20.6488 24.8416 20.7576C24.9046 20.8665 24.93 20.993 24.914 21.1177C24.8062 21.9579 24.3955 22.7301 23.7588 23.2897C23.1221 23.8494 22.303 24.1583 21.4548 24.1584C18.8335 24.1584 16.3196 23.1186 14.4661 21.2677C12.6126 19.4167 11.5713 16.9063 11.5713 14.2887C11.5715 13.4416 11.8807 12.6237 12.4412 11.9878C13.0017 11.352 13.7749 10.9419 14.6163 10.8343C14.7412 10.8182 14.8678 10.8437 14.9768 10.9066C15.0858 10.9696 15.1711 11.0665 15.2195 11.1826L16.6802 14.5862C16.7182 14.6736 16.7341 14.7689 16.7265 14.8638C16.7189 14.9587 16.688 15.0503 16.6366 15.1305L15.4229 16.9738C15.3689 17.0572 15.3372 17.153 15.3308 17.2521C15.3245 17.3512 15.3437 17.4503 15.3866 17.5399V17.5399Z" stroke="white" stroke-linecap="round" stroke-linejoin="round"/>
</svg>
