<svg width="32" height="40" viewBox="0 0 32 40" fill="none" xmlns="http://www.w3.org/2000/svg">
<path d="M28.5898 17.2169L28.5898 17.2169C30.5029 13.4116 30.69 9.21757 30.5144 6.55665L30.5135 6.54277L30.513 6.52887C30.4884 5.88361 30.2954 5.11414 30.0012 4.38319C29.7052 3.64802 29.3418 3.03829 29.0389 2.6913L29.0377 2.68994C28.7277 2.33335 28.2528 1.95586 27.7217 1.64454C27.1971 1.33704 26.6928 1.13807 26.3285 1.06927C25.4263 0.962204 23.3988 0.962581 21.9713 1.18971L21.9584 1.19176L21.9455 1.19347L16.4196 1.92545L16.2882 1.94285L16.1569 1.92544L10.6343 1.19346L10.6245 1.19216L10.6147 1.19066C9.12456 0.963041 7.15979 0.961807 6.19228 1.06917C5.85814 1.13806 5.37153 1.33486 4.85484 1.64179C4.32805 1.95471 3.85265 2.33313 3.54343 2.69014L3.54029 2.69376L3.54028 2.69375C3.23683 3.04073 2.87307 3.65084 2.56826 4.39139C2.26831 5.12012 2.05852 5.89515 2.0054 6.55423C1.88577 9.233 2.07692 13.425 3.92987 17.2276L3.93002 17.2279L3.93004 17.228L3.93186 17.2317L3.93703 17.2425L3.95313 17.2765C3.96633 17.3048 3.98436 17.3442 4.00652 17.3944C4.05084 17.4948 4.1117 17.6384 4.18348 17.8229C4.32701 18.1918 4.5145 18.7247 4.70076 19.4022C5.07313 20.7568 5.44197 22.6945 5.44197 25.0577C5.44197 25.9385 5.36723 27.0521 5.28634 28.233L5.27736 28.364C5.19791 29.5227 5.11288 30.7629 5.07517 31.9953C5.03598 33.2757 5.04898 34.5202 5.16741 35.6243C5.28695 36.7388 5.50695 37.6368 5.83601 38.27M28.5898 17.2169L5.83812 38.2741C5.83741 38.2728 5.83671 38.2714 5.83601 38.27M28.5898 17.2169L28.586 17.2246L29.4833 17.666C28.586 17.2246 28.5859 17.2249 28.5857 17.2252L28.5854 17.2258L28.5847 17.2273L28.5828 17.2311L28.5777 17.2418L28.5615 17.2759C28.5483 17.3042 28.5302 17.3436 28.508 17.3938C28.4637 17.4941 28.4027 17.6377 28.3308 17.8222C28.1871 18.191 27.9994 18.7238 27.8129 19.4013C27.44 20.7557 27.0707 22.6936 27.0707 25.0577C27.0707 25.5198 27.0766 26.0357 27.0828 26.5912C27.0999 28.1077 27.1203 29.9191 27.0348 31.7347C26.9165 34.2488 26.5991 36.5423 25.9064 37.9216L26.8 38.3704M28.5898 17.2169L5.83601 38.27M5.83601 38.27C5.83536 38.2686 5.83622 38.2695 5.83903 38.2723C5.85917 38.2926 5.97972 38.414 6.36995 38.5226C6.78136 38.6372 7.32466 38.687 7.89172 38.6537C8.45979 38.6204 8.98411 38.5077 9.36356 38.3475C9.7242 38.1952 9.80517 38.0677 9.81316 38.0586C10.1759 36.7895 10.5173 35.0249 10.8747 33.0413C10.9577 32.5806 11.0415 32.109 11.1263 31.631C11.4061 30.0548 11.698 28.4105 12.0155 26.8691C12.4275 24.8694 12.8967 22.9684 13.4695 21.5555C13.7542 20.8533 14.0905 20.2044 14.5046 19.7176C14.9158 19.2342 15.5089 18.795 16.2868 18.8034C17.0832 18.7951 17.6602 19.263 18.0365 19.7705C18.409 20.2729 18.6835 20.9343 18.9007 21.6362C19.3388 23.0514 19.6382 24.9543 19.8872 26.9475C20.0195 28.0061 20.145 29.1604 20.2691 30.3012C20.374 31.2655 20.4778 32.2202 20.5838 33.0992C20.8206 35.0638 21.0827 36.7952 21.4331 38.0338C21.4549 38.0546 21.5577 38.1531 21.888 38.2605C22.3121 38.3985 22.9019 38.4759 23.542 38.4691C24.1788 38.4622 24.7978 38.3727 25.2723 38.2233C25.7298 38.0793 25.8815 37.9358 25.9097 37.909C25.9146 37.9044 25.9158 37.9032 25.9143 37.9062L26.8 38.3704M26.8 38.3704C26.0643 39.7742 20.9797 39.8962 20.4892 38.3704M26.8 38.3704H20.4892M20.4892 38.3704C19.9285 36.4293 19.6019 33.4212 19.2725 30.3874C18.7001 25.1151 18.1193 19.7653 16.2866 19.8035C14.2493 19.7607 13.1213 26.1148 12.1126 31.7963C11.6627 34.3306 11.2365 36.7311 10.764 38.3704H20.4892ZM29.7923 2.03375C30.5902 2.94789 31.4518 4.90318 31.5123 6.49081L29.7923 2.03375Z" fill="#0FE3AF" stroke="#0152A8" stroke-width="2"/>
<path d="M26.2676 4.08426L26.1342 12.0907" stroke="#0152A8" stroke-width="2" stroke-linecap="round" stroke-linejoin="round"/>
</svg>
