<svg width="86" height="86" viewBox="0 0 86 86" fill="none" xmlns="http://www.w3.org/2000/svg">
<circle cx="43.0107" cy="43.2461" r="42.5" fill="#E6ECF2"/>
<path d="M47.964 28.1232C50.4021 28.7775 52.6252 30.0616 54.4102 31.8466C56.1952 33.6316 57.4793 35.8547 58.1336 38.2928M46.4727 33.6752C47.9391 34.0646 49.2764 34.8348 50.3492 35.9076C51.4221 36.9804 52.1922 38.3178 52.5817 39.7841M35.9437 43.3597C37.4228 46.4142 39.8928 48.8778 42.9511 50.3491C43.1766 50.4559 43.4262 50.5021 43.6751 50.4832C43.9239 50.4643 44.1636 50.3809 44.3705 50.2413L48.8624 47.2407C49.0608 47.1061 49.2902 47.0239 49.529 47.0019C49.7677 46.98 50.0082 47.0188 50.2279 47.1149L58.6367 50.7264C58.9241 50.846 59.1642 51.0568 59.3201 51.3262C59.4759 51.5957 59.5388 51.9089 59.4992 52.2177C59.2327 54.2979 58.2173 56.2097 56.6431 57.5953C55.0689 58.981 53.0438 59.7456 50.9466 59.7461C44.4658 59.7461 38.2505 57.1716 33.6678 52.589C29.0852 48.0064 26.5107 41.791 26.5107 35.3102C26.5112 33.213 27.2758 31.1879 28.6615 29.6137C30.0472 28.0395 31.959 27.0242 34.0391 26.7577C34.3479 26.718 34.6611 26.7809 34.9306 26.9368C35.2001 27.0926 35.4108 27.3327 35.5305 27.6201L39.1419 36.0469C39.2358 36.2631 39.2751 36.4991 39.2563 36.7341C39.2375 36.9691 39.1612 37.1959 39.0341 37.3945L36.0335 41.9582C35.9 42.1646 35.8216 42.4019 35.8058 42.6472C35.7901 42.8926 35.8376 43.1379 35.9437 43.3597Z" stroke="#0152A8" stroke-width="2" stroke-linecap="round" stroke-linejoin="round"/>
</svg>
