<svg width="60" height="60" viewBox="0 0 60 60" fill="none" xmlns="http://www.w3.org/2000/svg">
<circle cx="29.7458" cy="29.6941" r="29.0442" stroke="#0FE3AF"/>
<path d="M34.7767 29.6913C34.7767 32.47 32.5241 34.7225 29.7454 34.7225C26.9667 34.7225 24.7142 32.47 24.7142 29.6913C24.7142 26.9126 26.9667 24.6601 29.7454 24.6601C32.5241 24.6601 34.7767 26.9126 34.7767 29.6913ZM34.7767 29.6913C34.7767 32.4711 35.7829 34.7225 38.2985 34.7225C40.8142 34.7225 41.8204 32.4711 41.8204 29.6913C41.8198 27.001 40.9207 24.3879 39.2659 22.2668C37.6111 20.1456 35.2953 18.6378 32.6859 17.9827C30.0766 17.3275 27.3232 17.5625 24.8627 18.6504C22.4021 19.7383 20.3753 21.6167 19.1039 23.9876C17.8325 26.3586 17.3893 29.0862 17.8446 31.7377C18.2999 34.3892 19.6277 36.8127 21.6172 38.6237C23.6067 40.4347 26.144 41.5294 28.8265 41.7341C31.509 41.9388 34.1831 41.2419 36.4244 39.7538M34.7767 29.6913V24.6601" stroke="#0152A8" stroke-linecap="round" stroke-linejoin="round"/>
</svg>
