<svg width="126" height="126" viewBox="0 0 126 126" fill="none" xmlns="http://www.w3.org/2000/svg">
<circle cx="63.3595" cy="62.6395" r="62.4994" fill="#E6ECF2"/>
<path d="M79.293 48.4489H71.9853V46.9874C71.9805 45.826 71.517 44.7136 70.6958 43.8923C69.8745 43.0711 68.7621 42.6076 67.6007 42.6028H58.8314C57.6701 42.6076 56.5576 43.0711 55.7364 43.8923C54.9151 44.7136 54.4516 45.826 54.4468 46.9874V48.4489H47.1391C46.3639 48.4489 45.6204 48.7569 45.0722 49.3051C44.524 49.8533 44.2161 50.5968 44.2161 51.372V74.7566C44.2161 75.5319 44.524 76.2754 45.0722 76.8236C45.6204 77.3717 46.3639 77.6797 47.1391 77.6797H79.293C80.0682 77.6797 80.8117 77.3717 81.3599 76.8236C81.9081 76.2754 82.2161 75.5319 82.2161 74.7566V51.372C82.2161 50.5968 81.9081 49.8533 81.3599 49.3051C80.8117 48.7569 80.0682 48.4489 79.293 48.4489ZM57.3699 46.9874C57.3699 46.5998 57.5239 46.228 57.798 45.9539C58.0721 45.6798 58.4438 45.5259 58.8314 45.5259H67.6007C67.9883 45.5259 68.3601 45.6798 68.6341 45.9539C68.9082 46.228 69.0622 46.5998 69.0622 46.9874V48.4489H57.3699V46.9874ZM68.3314 64.5259H64.6776V68.1797C64.6776 68.5673 64.5236 68.9391 64.2495 69.2132C63.9754 69.4873 63.6037 69.6412 63.2161 69.6412C62.8284 69.6412 62.4567 69.4873 62.1826 69.2132C61.9085 68.9391 61.7545 68.5673 61.7545 68.1797V64.5259H58.1007C57.7131 64.5259 57.3413 64.3719 57.0672 64.0978C56.7931 63.8237 56.6391 63.4519 56.6391 63.0643C56.6391 62.6767 56.7931 62.3049 57.0672 62.0309C57.3413 61.7568 57.7131 61.6028 58.1007 61.6028H61.7545V57.9489C61.7545 57.5613 61.9085 57.1896 62.1826 56.9155C62.4567 56.6414 62.8284 56.4874 63.2161 56.4874C63.6037 56.4874 63.9754 56.6414 64.2495 56.9155C64.5236 57.1896 64.6776 57.5613 64.6776 57.9489V61.6028H68.3314C68.7191 61.6028 69.0908 61.7568 69.3649 62.0309C69.639 62.3049 69.793 62.6767 69.793 63.0643C69.793 63.4519 69.639 63.8237 69.3649 64.0978C69.0908 64.3719 68.7191 64.5259 68.3314 64.5259Z" fill="#0152A8"/>
</svg>
