<svg width="20" height="19" viewBox="0 0 20 19" fill="none" xmlns="http://www.w3.org/2000/svg">
<path d="M13.8566 2.31733C14.89 2.3203 15.8803 2.71668 16.6111 3.41989C17.3419 4.1231 17.7538 5.076 17.7569 6.07048V13.576C17.7538 14.5705 17.3419 15.5234 16.6111 16.2266C15.8803 16.9298 14.89 17.3262 13.8566 17.3291H6.05683C5.02336 17.3262 4.0331 16.9298 3.30232 16.2266C2.57154 15.5234 2.15963 14.5705 2.15654 13.576V6.07048C2.15963 5.076 2.57154 4.1231 3.30232 3.41989C4.0331 2.71668 5.02336 2.3203 6.05683 2.31733H13.8566ZM13.8566 0.816315H6.05683C3.05369 0.816315 0.59668 3.18063 0.59668 6.07048V13.576C0.59668 16.4658 3.05369 18.8302 6.05683 18.8302H13.8566C16.8597 18.8302 19.3167 16.4658 19.3167 13.576V6.07048C19.3167 3.18063 16.8597 0.816315 13.8566 0.816315Z" fill="#0152A8"/>
<path d="M15.0263 6.07076C14.7948 6.07076 14.5686 6.00473 14.3762 5.88102C14.1838 5.75731 14.0339 5.58147 13.9453 5.37575C13.8568 5.17002 13.8336 4.94365 13.8787 4.72525C13.9239 4.50685 14.0353 4.30624 14.1989 4.14879C14.3626 3.99133 14.571 3.88411 14.798 3.84066C15.025 3.79722 15.2602 3.81952 15.474 3.90473C15.6878 3.98995 15.8705 4.13425 15.9991 4.3194C16.1276 4.50455 16.1963 4.72222 16.1963 4.9449C16.1966 5.09284 16.1665 5.23938 16.1079 5.37612C16.0492 5.51286 15.963 5.6371 15.8543 5.74171C15.7456 5.84632 15.6165 5.92924 15.4744 5.98571C15.3323 6.04217 15.18 6.07108 15.0263 6.07076ZM9.95638 6.82107C10.5735 6.82107 11.1767 6.99716 11.6898 7.32707C12.2029 7.65698 12.6029 8.1259 12.839 8.67453C13.0752 9.22315 13.137 9.82684 13.0166 10.4093C12.8962 10.9917 12.599 11.5267 12.1627 11.9466C11.7263 12.3665 11.1703 12.6524 10.5651 12.7683C9.95984 12.8841 9.33248 12.8246 8.76235 12.5974C8.19222 12.3702 7.70492 11.9853 7.36207 11.4916C7.01923 10.9978 6.83623 10.4173 6.83623 9.82351C6.83712 9.02747 7.16613 8.26429 7.75108 7.7014C8.33603 7.13852 9.12914 6.82192 9.95638 6.82107ZM9.95638 5.32005C9.03076 5.32005 8.12593 5.58417 7.35631 6.07902C6.58668 6.57387 5.98683 7.27721 5.63261 8.10011C5.27839 8.92301 5.18572 9.82851 5.36629 10.7021C5.54687 11.5757 5.9926 12.3781 6.64711 13.0079C7.30162 13.6378 8.13552 14.0667 9.04336 14.2404C9.95119 14.4142 10.8922 14.325 11.7473 13.9842C12.6025 13.6433 13.3334 13.0661 13.8477 12.3255C14.3619 11.5849 14.6364 10.7142 14.6364 9.82351C14.6364 8.62912 14.1433 7.48365 13.2656 6.63908C12.388 5.79452 11.1976 5.32005 9.95638 5.32005Z" fill="#0152A8"/>
</svg>
