<svg width="23" height="23" viewBox="0 0 23 23" fill="none" xmlns="http://www.w3.org/2000/svg">
<path d="M16.4785 2.61449C17.7073 2.61802 18.8847 3.08931 19.7536 3.92542C20.6225 4.76154 21.1123 5.89454 21.1159 7.07699V16.001C21.1123 17.1835 20.6225 18.3165 19.7536 19.1526C18.8847 19.9887 17.7073 20.46 16.4785 20.4635H7.20459C5.97579 20.46 4.79837 19.9887 3.92947 19.1526C3.06058 18.3165 2.57081 17.1835 2.56714 16.001V7.07699C2.57081 5.89454 3.06058 4.76154 3.92947 3.92542C4.79837 3.08931 5.97579 2.61802 7.20459 2.61449H16.4785ZM16.4785 0.829773H7.20459C3.63385 0.829773 0.712463 3.64095 0.712463 7.07699V16.001C0.712463 19.4371 3.63385 22.2482 7.20459 22.2482H16.4785C20.0492 22.2482 22.9706 19.4371 22.9706 16.001V7.07699C22.9706 3.64095 20.0492 0.829773 16.4785 0.829773Z" fill="white"/>
<path d="M17.8697 7.07736C17.5945 7.07736 17.3256 6.99885 17.0968 6.85176C16.868 6.70467 16.6897 6.4956 16.5844 6.25099C16.4791 6.00638 16.4516 5.73723 16.5053 5.47755C16.5589 5.21788 16.6914 4.97935 16.886 4.79214C17.0805 4.60492 17.3284 4.47743 17.5983 4.42578C17.8681 4.37413 18.1478 4.40063 18.402 4.50195C18.6562 4.60327 18.8735 4.77485 19.0263 4.99499C19.1792 5.21513 19.2608 5.47395 19.2608 5.73871C19.2612 5.91461 19.2255 6.08885 19.1557 6.25144C19.0859 6.41402 18.9835 6.56174 18.8542 6.68613C18.725 6.81051 18.5715 6.9091 18.4025 6.97624C18.2335 7.04338 18.0525 7.07774 17.8697 7.07736ZM11.8416 7.96948C12.5753 7.96948 13.2926 8.17885 13.9027 8.57112C14.5127 8.96339 14.9883 9.52093 15.269 10.1732C15.5498 10.8256 15.6233 11.5433 15.4802 12.2358C15.337 12.9283 14.9837 13.5644 14.4648 14.0637C13.946 14.563 13.285 14.903 12.5653 15.0407C11.8457 15.1784 11.0998 15.1077 10.4219 14.8375C9.74399 14.5674 9.16459 14.1098 8.75695 13.5227C8.3493 12.9357 8.13172 12.2454 8.13172 11.5394C8.13277 10.5929 8.52397 9.68547 9.21948 9.0162C9.91498 8.34693 10.858 7.97049 11.8416 7.96948ZM11.8416 6.18477C10.741 6.18477 9.66517 6.49881 8.75009 7.08718C7.835 7.67556 7.12178 8.51183 6.70062 9.49026C6.27945 10.4687 6.16925 11.5453 6.38396 12.584C6.59867 13.6227 7.12864 14.5768 7.90686 15.3257C8.68507 16.0745 9.67658 16.5845 10.756 16.7911C11.8354 16.9977 12.9542 16.8917 13.971 16.4864C14.9878 16.0811 15.8569 15.3948 16.4683 14.5143C17.0798 13.6337 17.4061 12.5984 17.4061 11.5394C17.4061 10.1193 16.8199 8.75729 15.7763 7.7531C14.7327 6.74891 13.3174 6.18477 11.8416 6.18477Z" fill="white"/>
</svg>
