<svg width="22" height="19" viewBox="0 0 22 19" fill="none" xmlns="http://www.w3.org/2000/svg">
<path d="M21.9668 2.98818C21.1614 3.33788 20.3092 3.56828 19.4372 3.67208C20.3536 3.13585 21.0428 2.28397 21.3754 1.27619C20.509 1.78245 19.5627 2.13767 18.577 2.32662C18.162 1.89194 17.6628 1.54613 17.1098 1.31023C16.5569 1.07432 15.9617 0.953243 15.3604 0.954353C12.9261 0.954353 10.9562 2.89431 10.9562 5.28573C10.9544 5.61836 10.9926 5.95001 11.0698 6.27358C9.32422 6.19181 7.61496 5.74684 6.05136 4.96713C4.48775 4.18743 3.10423 3.09016 1.98931 1.74553C1.59817 2.40446 1.39131 3.15627 1.39035 3.92239C1.39035 5.42429 2.1745 6.75187 3.35854 7.52964C2.65703 7.513 1.96989 7.32746 1.35546 6.98877V7.04241C1.35546 9.14328 2.87633 10.891 4.88924 11.2889C4.51072 11.3897 4.12065 11.4408 3.72891 11.4408C3.45094 11.4413 3.1736 11.4144 2.90093 11.3604C3.46052 13.0813 5.08919 14.3329 7.01846 14.3686C5.45079 15.5759 3.52611 16.2285 1.54691 16.2237C1.1956 16.2231 0.844617 16.2023 0.495728 16.1611C2.50917 17.4459 4.84963 18.1254 7.23853 18.1189C15.351 18.1189 19.783 11.5168 19.783 5.79083C19.783 5.60309 19.7781 5.41535 19.7691 5.23209C20.6294 4.62062 21.3736 3.86076 21.9668 2.98818Z" fill="white"/>
</svg>
