<svg width="19" height="16" viewBox="0 0 19 16" fill="none" xmlns="http://www.w3.org/2000/svg">
<path d="M18.7192 2.31567C18.0418 2.60979 17.3251 2.80356 16.5917 2.89086C17.3625 2.43987 17.9421 1.7234 18.2218 0.875817C17.4932 1.3016 16.6973 1.60036 15.8683 1.75928C15.5192 1.39369 15.0994 1.10285 14.6343 0.904443C14.1692 0.706036 13.6686 0.604205 13.163 0.605139C11.1156 0.605139 9.45879 2.23672 9.45879 4.24801C9.45734 4.52777 9.48942 4.8067 9.55435 5.07883C8.08626 5.01006 6.64871 4.63582 5.33365 3.98006C4.01859 3.32429 2.85499 2.40144 1.9173 1.27055C1.58833 1.82474 1.41435 2.45704 1.41355 3.10139C1.41355 4.36455 2.07305 5.48109 3.06887 6.13523C2.47888 6.12124 1.90097 5.96519 1.38421 5.68034V5.72545C1.38421 7.49237 2.66332 8.9623 4.35626 9.29689C4.03791 9.3817 3.70985 9.42466 3.38038 9.42471C3.14659 9.42512 2.91334 9.40245 2.68401 9.35704C3.15465 10.8044 4.52443 11.857 6.14702 11.8871C4.82855 12.9025 3.20981 13.4513 1.54523 13.4473C1.24976 13.4468 0.954563 13.4293 0.661133 13.3946C2.35452 14.4752 4.32295 15.0467 6.33212 15.0413C13.1551 15.0413 16.8825 9.48862 16.8825 4.67282C16.8825 4.51492 16.8784 4.35703 16.8709 4.20289C17.5944 3.68863 18.2203 3.04955 18.7192 2.31567Z" fill="#0152A8"/>
</svg>
