<svg width="23" height="19" viewBox="0 0 23 19" fill="none" xmlns="http://www.w3.org/2000/svg">
<path d="M22.1078 2.95156C21.3024 3.30126 20.4502 3.53166 19.5782 3.63546C20.4946 3.09923 21.1838 2.24735 21.5164 1.23957C20.65 1.74583 19.7037 2.10105 18.718 2.29C18.303 1.85532 17.8038 1.50951 17.2508 1.2736C16.6978 1.0377 16.1027 0.916622 15.5014 0.917732C13.0671 0.917732 11.0971 2.85769 11.0971 5.2491C11.0954 5.58174 11.1336 5.91339 11.2108 6.23696C9.46521 6.15519 7.75595 5.71022 6.19235 4.93051C4.62874 4.15081 3.24522 3.05354 2.1303 1.70891C1.73916 2.36783 1.5323 3.11964 1.53135 3.88577C1.53135 5.38767 2.31549 6.71525 3.49953 7.49301C2.79802 7.47638 2.11088 7.29084 1.49646 6.95215V7.00579C1.49646 9.10666 3.01732 10.8544 5.03023 11.2522C4.65171 11.3531 4.26165 11.4042 3.8699 11.4042C3.59193 11.4047 3.31459 11.3777 3.04192 11.3238C3.60151 13.0447 5.23018 14.2963 7.15945 14.332C5.59178 15.5393 3.6671 16.1918 1.68791 16.187C1.33659 16.1865 0.985608 16.1656 0.636719 16.1245C2.65016 17.4092 4.99062 18.0888 7.37953 18.0823C15.492 18.0823 19.924 11.4802 19.924 5.75421C19.924 5.56647 19.9191 5.37873 19.9101 5.19547C20.7703 4.584 21.5146 3.82414 22.1078 2.95156Z" fill="#0152A8"/>
</svg>
