<svg width="23" height="19" viewBox="0 0 23 19" fill="none" xmlns="http://www.w3.org/2000/svg">
<path d="M22.4417 2.99053C21.6363 3.34023 20.7841 3.57063 19.9121 3.67443C20.8285 3.1382 21.5177 2.28632 21.8503 1.27854C20.9839 1.7848 20.0376 2.14002 19.0519 2.32897C18.6369 1.89429 18.1377 1.54848 17.5847 1.31258C17.0317 1.07667 16.4365 0.955593 15.8353 0.956703C13.401 0.956703 11.431 2.89666 11.431 5.28807C11.4293 5.62071 11.4675 5.95236 11.5447 6.27593C9.7991 6.19416 8.08984 5.74919 6.52624 4.96948C4.96264 4.18978 3.57911 3.09251 2.46419 1.74788C2.07305 2.40681 1.86619 3.15862 1.86524 3.92474C1.86524 5.42664 2.64938 6.75422 3.83342 7.53199C3.13191 7.51535 2.44477 7.32981 1.83035 6.99112V7.04476C1.83035 9.14563 3.35122 10.8934 5.36413 11.2912C4.9856 11.392 4.59554 11.4431 4.20379 11.4432C3.92582 11.4437 3.64849 11.4167 3.37582 11.3627C3.93541 13.0837 5.56408 14.3352 7.49334 14.371C5.92568 15.5783 4.00099 16.2308 2.0218 16.226C1.67049 16.2255 1.3195 16.2046 0.970612 16.1634C2.98405 17.4482 5.32452 18.1278 7.71342 18.1213C15.8259 18.1213 20.2579 11.5192 20.2579 5.79318C20.2579 5.60544 20.253 5.4177 20.244 5.23444C21.1042 4.62297 21.8484 3.86311 22.4417 2.99053Z" fill="white"/>
</svg>
