<svg width="23" height="18" viewBox="0 0 23 18" fill="none" xmlns="http://www.w3.org/2000/svg">
<path d="M22.3916 2.2433C21.5862 2.59301 20.734 2.8234 19.862 2.9272C20.7784 2.39098 21.4676 1.53909 21.8002 0.531316C20.9338 1.03758 19.9875 1.39279 19.0018 1.58175C18.5868 1.14706 18.0876 0.801258 17.5346 0.565352C16.9817 0.329447 16.3865 0.20837 15.7852 0.20948C13.3509 0.20948 11.381 2.14943 11.381 4.54085C11.3792 4.87349 11.4174 5.20514 11.4946 5.52871C9.74902 5.44694 8.03977 5.00196 6.47616 4.22226C4.91256 3.44256 3.52904 2.34529 2.41411 1.00066C2.02297 1.65958 1.81611 2.41139 1.81516 3.17752C1.81516 4.67942 2.5993 6.00699 3.78334 6.78476C3.08183 6.76813 2.3947 6.58259 1.78027 6.2439V6.29754C1.78027 8.39841 3.30114 10.1462 5.31405 10.544C4.93552 10.6448 4.54546 10.6959 4.15372 10.696C3.87575 10.6964 3.59841 10.6695 3.32574 10.6155C3.88533 12.3364 5.514 13.588 7.44326 13.6238C5.8756 14.8311 3.95091 15.4836 1.97172 15.4788C1.62041 15.4783 1.26942 15.4574 0.920532 15.4162C2.93397 16.701 5.27444 17.3806 7.66334 17.3741C15.7758 17.3741 20.2078 10.7719 20.2078 5.04596C20.2078 4.85822 20.2029 4.67048 20.1939 4.48721C21.0542 3.87575 21.7984 3.11589 22.3916 2.2433Z" fill="#0152A8"/>
</svg>
