<svg width="20" height="21" viewBox="0 0 20 21" fill="none" xmlns="http://www.w3.org/2000/svg">
<path d="M18.5603 8.2717C18.2243 7.92684 17.8795 7.5643 17.7468 7.25481C17.6142 6.94533 17.623 6.48552 17.6142 6.01687C17.6054 5.15915 17.5877 4.17764 16.9068 3.49677C16.2259 2.8159 15.2444 2.79821 14.3867 2.78937C13.918 2.78053 13.4406 2.77168 13.1488 2.65673C12.8569 2.54178 12.4767 2.17924 12.1319 1.84322C11.5217 1.25962 10.8232 0.596436 9.90356 0.596436C8.98395 0.596436 8.28539 1.25962 7.67526 1.84322C7.33041 2.17924 6.96787 2.52409 6.65838 2.65673C6.34889 2.78937 5.88908 2.78053 5.42043 2.78937C4.56271 2.79821 3.5812 2.8159 2.90033 3.49677C2.21946 4.17764 2.20177 5.15915 2.19293 6.01687C2.18409 6.48552 2.17525 6.96301 2.0603 7.25481C1.94534 7.54662 1.5828 7.92684 1.24679 8.2717C0.663185 8.88183 0 9.58038 0 10.5C0 11.4196 0.663185 12.1182 1.24679 12.7283C1.5828 13.0732 1.92766 13.4357 2.0603 13.7452C2.19293 14.0547 2.18409 14.5145 2.19293 14.9831C2.20177 15.8409 2.21946 16.8224 2.90033 17.5032C3.5812 18.1841 4.56271 18.2018 5.42043 18.2106C5.88908 18.2195 6.36658 18.2283 6.65838 18.3433C6.95018 18.4582 7.33041 18.8208 7.67526 19.1568C8.28539 19.7404 8.98395 20.4036 9.90356 20.4036C10.8232 20.4036 11.5217 19.7404 12.1319 19.1568C12.4767 18.8208 12.8393 18.4759 13.1488 18.3433C13.4582 18.2106 13.918 18.2195 14.3867 18.2106C15.2444 18.2018 16.2259 18.1841 16.9068 17.5032C17.5877 16.8224 17.6054 15.8409 17.6142 14.9831C17.623 14.5145 17.6319 14.037 17.7468 13.7452C17.8618 13.4534 18.2243 13.0732 18.5603 12.7283C19.1439 12.1182 19.8071 11.4196 19.8071 10.5C19.8071 9.58038 19.1439 8.88183 18.5603 8.2717ZM14.2806 8.89067L9.0989 13.8425C8.96494 13.9685 8.78764 14.0381 8.60372 14.037C8.42251 14.0377 8.24813 13.9679 8.11739 13.8425L5.52654 11.3666C5.45468 11.3039 5.39624 11.2273 5.35473 11.1414C5.31322 11.0556 5.2895 10.9622 5.28499 10.867C5.28048 10.7717 5.29528 10.6765 5.3285 10.5871C5.36172 10.4977 5.41267 10.416 5.47829 10.3468C5.54391 10.2776 5.62285 10.2223 5.71035 10.1844C5.79786 10.1465 5.89213 10.1267 5.98749 10.1261C6.08285 10.1256 6.17735 10.1443 6.26528 10.1812C6.35322 10.2181 6.43279 10.2724 6.49921 10.3408L8.60372 12.3481L13.3079 7.86494C13.4455 7.74494 13.6241 7.68275 13.8064 7.69138C13.9887 7.70001 14.1607 7.77878 14.2863 7.91123C14.4119 8.04369 14.4814 8.21956 14.4804 8.4021C14.4793 8.58463 14.4077 8.75969 14.2806 8.89067Z" fill="#0FE3AF"/>
</svg>
